<svg width="41" height="37" viewBox="0 0 41 37" fill="none" xmlns="http://www.w3.org/2000/svg">
<path d="M20.5 16.4484C18.6427 12.8384 13.5874 6.10823 8.88675 2.79133C4.3829 -0.386175 2.66705 0.161175 1.5416 0.673675C0.2378 1.25793 0 3.26078 0 4.43543C0 5.61418 0.64575 14.0889 1.066 15.5054C2.46 20.1794 7.4087 21.7579 11.972 21.2516C5.289 22.2417 -0.64985 24.6751 7.134 33.3425C15.6989 42.2087 18.8723 31.4421 20.5 25.983C22.1277 31.4421 24.0014 41.8213 33.7102 33.3425C41 25.983 35.713 22.2417 29.03 21.2516C33.5913 21.7579 38.542 20.1794 39.934 15.5054C40.3542 14.0909 41 5.61418 41 4.43748C41 3.25873 40.7622 1.25998 39.4584 0.669575C38.3329 0.161175 36.6171 -0.390275 32.1133 2.78723C27.4126 6.11028 22.3552 12.8404 20.5 16.4484Z" fill="white"/>
</svg>
