<svg width="44" height="33" viewBox="0 0 44 33" fill="none" xmlns="http://www.w3.org/2000/svg">
<path d="M41.25 0H2.75C1.2375 0 0 1.2375 0 2.75V30.25C0 31.7625 1.2375 33 2.75 33H41.25C42.7625 33 44 31.7625 44 30.25V2.75C44 1.2375 42.7625 0 41.25 0ZM13.585 21.835L5.335 30.085C5.005 30.415 4.565 30.58 4.125 30.58C3.685 30.58 3.245 30.415 2.915 30.085C2.59921 29.7614 2.42244 29.3272 2.42244 28.875C2.42244 28.4228 2.59921 27.9886 2.915 27.665L11.165 19.415C11.825 18.755 12.925 18.755 13.585 19.415C14.2725 20.075 14.2725 21.175 13.585 21.835ZM41.085 30.085C40.755 30.415 40.315 30.58 39.875 30.58C39.435 30.58 38.995 30.415 38.665 30.085L30.415 21.835C30.0992 21.5114 29.9224 21.0772 29.9224 20.625C29.9224 20.1728 30.0992 19.7386 30.415 19.415C31.075 18.755 32.175 18.755 32.835 19.415L41.085 27.665C41.7725 28.325 41.7725 29.425 41.085 30.085ZM41.085 5.335L24.2 22.2475C23.595 22.8525 22.7975 23.155 22 23.155C21.2025 23.155 20.405 22.8525 19.8 22.2475L2.915 5.335C2.255 4.675 2.255 3.575 2.915 2.915C3.575 2.255 4.675 2.255 5.335 2.915L22 19.58L38.665 2.915C39.325 2.255 40.425 2.255 41.085 2.915C41.7725 3.575 41.7725 4.675 41.085 5.335Z" fill="white"/>
</svg>
