<svg width="40" height="41" viewBox="0 0 40 41" fill="none" xmlns="http://www.w3.org/2000/svg">
<path d="M20 0.984375C17.3736 0.984375 14.7728 1.50169 12.3463 2.50678C9.91982 3.51188 7.71504 4.98507 5.85786 6.84224C2.10714 10.593 0 15.68 0 20.9844C0 29.8244 5.74 37.3244 13.68 39.9844C14.68 40.1444 15 39.5244 15 38.9844V35.6044C9.46 36.8044 8.28 32.9244 8.28 32.9244C7.36 30.6044 6.06 29.9844 6.06 29.9844C4.24 28.7444 6.2 28.7844 6.2 28.7844C8.2 28.9244 9.26 30.8444 9.26 30.8444C11 33.8844 13.94 32.9844 15.08 32.5044C15.26 31.2044 15.78 30.3244 16.34 29.8244C11.9 29.3244 7.24 27.6044 7.24 19.9844C7.24 17.7644 8 15.9844 9.3 14.5644C9.1 14.0644 8.4 11.9844 9.5 9.28438C9.5 9.28438 11.18 8.74438 15 11.3244C16.58 10.8844 18.3 10.6644 20 10.6644C21.7 10.6644 23.42 10.8844 25 11.3244C28.82 8.74438 30.5 9.28438 30.5 9.28438C31.6 11.9844 30.9 14.0644 30.7 14.5644C32 15.9844 32.76 17.7644 32.76 19.9844C32.76 27.6244 28.08 29.3044 23.62 29.8044C24.34 30.4244 25 31.6444 25 33.5044V38.9844C25 39.5244 25.32 40.1644 26.34 39.9844C34.28 37.3044 40 29.8244 40 20.9844C40 18.3579 39.4827 15.7572 38.4776 13.3307C37.4725 10.9042 35.9993 8.69941 34.1421 6.84224C32.285 4.98507 30.0802 3.51188 27.6537 2.50678C25.2272 1.50169 22.6264 0.984375 20 0.984375Z" fill="white"/>
</svg>
