<svg width="36" height="41" viewBox="0 0 36 41" fill="none" xmlns="http://www.w3.org/2000/svg">
<path d="M35.2457 24.4795C34.7056 27.2995 30.5386 30.3995 25.6578 30.9995C23.1306 31.2995 20.642 31.5995 17.9991 31.4795C13.6584 31.2595 10.2824 30.3995 10.2824 30.3995V31.6395C10.8997 36.0795 14.5651 36.3395 18.0569 36.4795C21.568 36.5795 24.6932 35.5595 24.6932 35.5595L24.8476 38.8595C24.8476 38.8595 22.3782 40.2195 17.9991 40.4795C15.5876 40.6195 12.5781 40.4195 9.08634 39.4795C1.52404 37.3795 0.212207 28.9995 0.0192916 20.4795L0 13.6195C0 4.93949 5.45952 2.39949 5.45952 2.39949C8.2568 1.07949 13.0025 0.479492 17.9412 0.479492H18.0569C22.9956 0.479492 27.7413 1.07949 30.5386 2.39949C30.5386 2.39949 35.9981 4.93949 35.9981 13.6195C35.9981 13.6195 36.0753 20.0395 35.2457 24.4795ZM29.574 14.2995C29.574 12.1395 28.9953 10.4795 27.9342 9.17949C26.8539 7.91949 25.4263 7.25949 23.6322 7.25949C21.5873 7.25949 20.0247 8.07949 18.9636 9.71949L17.9991 11.4795L17.0345 9.71949C15.9541 8.07949 14.4108 7.25949 12.3466 7.25949C10.5718 7.25949 9.14421 7.91949 8.04459 9.17949C6.98355 10.4795 6.4241 12.1395 6.4241 14.2995V24.8195H10.4753V14.5995C10.4753 12.4795 11.3435 11.3595 13.099 11.3595C15.0281 11.3595 15.9927 12.6595 15.9927 15.2195V20.7995H19.9861V15.2195C19.9861 12.6595 20.9507 11.3595 22.8991 11.3595C24.6354 11.3595 25.5035 12.4795 25.5035 14.5995V24.8195H29.574V14.2995Z" fill="white"/>
</svg>
