<svg width="41" height="41" viewBox="0 0 41 41" fill="none" xmlns="http://www.w3.org/2000/svg">
<path d="M20.5 0C9.184 0 0 9.184 0 20.5C0 31.816 9.184 41 20.5 41C31.816 41 41 31.816 41 20.5C41 9.184 31.816 0 20.5 0ZM30.012 13.94C29.7045 17.179 28.372 25.051 27.6955 28.6795C27.4085 30.217 26.8345 30.7295 26.3015 30.791C25.1125 30.8935 24.2105 30.012 23.0625 29.2535C21.2585 28.0645 20.2335 27.3265 18.491 26.1785C16.4615 24.846 17.7735 24.108 18.942 22.919C19.2495 22.6115 24.4975 17.835 24.6 17.4045C24.6142 17.3393 24.6123 17.2716 24.5945 17.2073C24.5766 17.143 24.5433 17.084 24.4975 17.0355C24.3745 16.933 24.2105 16.974 24.067 16.9945C23.8825 17.0355 21.0125 18.942 15.416 22.714C14.596 23.2675 13.858 23.5545 13.202 23.534C12.464 23.5135 11.07 23.124 10.0245 22.7755C8.733 22.3655 7.7285 22.14 7.8105 21.4225C7.8515 21.0535 8.364 20.6845 9.3275 20.295C15.3135 17.6915 19.2905 15.9695 21.279 15.1495C26.978 12.7715 28.1465 12.3615 28.9255 12.3615C29.0895 12.3615 29.479 12.4025 29.725 12.6075C29.93 12.7715 29.9915 12.997 30.012 13.161C29.9915 13.284 30.0325 13.653 30.012 13.94Z" fill="white"/>
</svg>
