<svg width="44" height="37" viewBox="0 0 44 37" fill="none" xmlns="http://www.w3.org/2000/svg">
<path d="M44 4.82857C42.3805 5.56471 40.6348 6.04846 38.826 6.27981C40.6769 5.16509 42.1071 3.39836 42.7801 1.27408C41.0344 2.3257 39.0994 3.06184 37.0593 3.48249C35.3977 1.6737 33.0631 0.62207 30.413 0.62207C25.4704 0.62207 21.4321 4.66031 21.4321 9.64501C21.4321 10.3601 21.5163 11.0542 21.6635 11.7062C14.1759 11.3276 7.50861 7.73106 3.07075 2.28364C2.29254 3.60869 1.85086 5.16509 1.85086 6.80563C1.85086 9.93947 3.4283 12.7158 5.86807 14.2932C4.37476 14.2932 2.98662 13.8725 1.76673 13.2416V13.3047C1.76673 17.6794 4.87954 21.3391 9.00191 22.1594C7.67863 22.5231 6.2888 22.5735 4.94264 22.3066C5.5139 24.0996 6.63268 25.6684 8.14172 26.7927C9.65076 27.9169 11.4742 28.54 13.3556 28.5743C10.1664 31.0992 6.21302 32.464 2.14532 32.4442C1.43021 32.4442 0.715105 32.4022 0 32.3181C3.99618 34.884 8.74952 36.3773 13.8394 36.3773C30.413 36.3773 39.5201 22.6221 39.5201 10.6966C39.5201 10.297 39.5201 9.91844 39.499 9.51882C41.2658 8.25687 42.7801 6.6584 44 4.82857Z" fill="white"/>
</svg>
